Coordinates
version=1
nRows=10
nColumns=40
inDegrees=yes

Units are S.I. units (second, meters, Newtons, ...)
Angles are in degrees.

endheader
time	pelvis_tilt	pelvis_list	pelvis_rotation	pelvis_tx	pelvis_ty	pelvis_tz	hip_flexion_r	hip_adduction_r	hip_rotation_r	knee_angle_r	knee_angle_r_beta	ankle_angle_r	subtalar_angle_r	mtp_angle_r	hip_flexion_l	hip_adduction_l	hip_rotation_l	knee_angle_l	knee_angle_l_beta	ankle_angle_l	subtalar_angle_l	mtp_angle_l	lumbar_extension	lumbar_bending	lumbar_rotation	arm_flex_r	arm_add_r	arm_rot_r	elbow_flex_r	pro_sup_r	wrist_flex_r	wrist_dev_r	arm_flex_l	arm_add_l	arm_rot_l	elbow_flex_l	pro_sup_l	wrist_flex_l	wrist_dev_l
     35.65250000	     -4.57991889	     -4.77726646	     -5.30771383	      0.87466832	      0.92717603	      0.46854556	     18.69070405	      2.88742256	    -10.90235612	     17.01441727	     17.01441727	      4.53451371	     -0.84679875	     -4.87387654	      5.57593770	     -9.41865157	    -10.17184175	     34.70031787	     34.70031787	     12.74368952	    -14.94329903	     -9.85198532	     -8.85108502	      7.94233389	      1.32846514	     -3.34557398	    -12.64394443	     -5.62074069	     32.31006871	     45.97794983	      0.00000000	      0.00000000	     12.01850458	    -12.93544256	     -9.66295119	     58.43618091	     46.83437962	      0.00000000	      0.00000000
     35.66600000	     -4.41063616	     -4.94582633	     -5.12192565	      0.87547806	      0.92783442	      0.47155035	     17.89407597	      3.17565090	    -11.15715590	     16.92685441	     16.92685441	      4.98884187	     -0.65620370	     -5.02228738	      7.18712874	    -10.33961703	     -9.60647721	     38.71674638	     38.71674638	     11.07523324	    -15.61329092	    -10.32098935	     -8.96853145	      7.93508636	      1.23350327	     -1.61241417	    -12.62771016	     -5.50033759	     33.32566154	     45.94179327	      0.00000000	      0.00000000	     10.96330151	    -12.48963415	     -9.41664768	     57.08184424	     46.78966863	      0.00000000	      0.00000000
     35.67950000	     -4.30655361	     -5.00093522	     -4.93363356	      0.87615112	      0.92814439	      0.47442577	     17.28862320	      3.30980097	    -11.46893746	     17.04198411	     17.04198411	      5.52617242	     -0.39922743	     -5.15359059	      8.95748798	    -11.11800093	     -8.96285066	     42.68687734	     42.68687734	      8.73437169	    -16.48962836	    -11.65038222	     -8.87949335	      7.83773069	      1.01741460	     -0.26622638	    -12.87220415	     -4.38267058	     35.84082613	     45.78055935	      0.00000000	      0.00000000	     10.53971799	    -12.00998363	     -9.29493077	     53.31019769	     46.73730212	      0.00000000	      0.00000000
     35.69300000	     -4.14101516	     -5.20848871	     -4.70587600	      0.87657694	      0.92834171	      0.47718573	     16.61474717	      3.60569971	    -11.71834877	     17.13243115	     17.13243115	      5.98608412	     -0.26448368	     -5.30463074	     10.86248153	    -11.99885254	     -8.03136650	     46.84585935	     46.84585935	      6.59603171	    -17.01087236	    -11.72552150	     -9.04155737	      7.86956595	      1.07038453	      1.39608776	    -13.00635871	     -4.23767838	     37.11437751	     45.73328835	      0.00000000	      0.00000000	      9.58505890	    -11.48754184	     -9.02656187	     51.96520615	     46.69032719	      0.00000000	      0.00000000
     35.70650000	     -4.07179351	     -5.23927177	     -4.47495259	      0.87673473	      0.92819316	      0.47956918	     16.21444158	      3.65127600	    -12.03378747	     17.50797946	     17.50797946	      6.68334991	      0.01365250	     -5.11091489	     13.02568156	    -12.51566668	     -6.87249294	     51.02261617	     51.02261617	      4.95811155	    -17.32056339	    -10.11513521	     -8.97171670	      7.81088334	      1.45294971	      1.70757713	    -13.95943246	     -1.87163913	     41.86937293	     45.42586537	      0.00000000	      0.00000000	     10.12725952	    -10.72161695	     -8.61539824	     46.75524958	     46.61003036	      0.00000000	      0.00000000
     35.72000000	     -3.88397576	     -5.42837042	     -4.22703641	      0.87672832	      0.92807402	      0.48189100	     15.65411078	      3.88881476	    -12.26135023	     17.79078615	     17.79078615	      7.16471727	      0.00349572	     -5.26641115	     15.04334212	    -13.15812309	     -5.69699561	     54.87913128	     54.87913128	      2.95335559	    -17.61818177	     -9.59209754	     -9.15684560	      7.83435241	      1.36027956	      3.63186457	    -14.11214886	     -1.89659851	     43.22128870	     45.38940347	      0.00000000	      0.00000000	      9.01718901	    -10.32804391	     -8.36029563	     45.55258486	     46.56233065	      0.00000000	      0.00000000
     35.73350000	     -3.85111409	     -5.39545768	     -3.95222083	      0.87631479	      0.92774633	      0.48370949	     15.43697742	      3.81585150	    -12.55256572	     18.35786703	     18.35786703	      7.97261153	      0.16891510	     -4.82422648	     17.44260343	    -13.25161879	     -4.22328174	     58.77642409	     58.77642409	      2.83649670	    -17.19723578	     -4.24905795	     -9.15245318	      7.69286062	      1.46332702	      4.51976881	    -14.98564855	     -0.14990813	     47.56343991	     45.16644184	      0.00000000	      0.00000000	      9.14147755	     -9.79651683	     -7.88535717	     41.14981176	     46.48131207	      0.00000000	      0.00000000
     35.74700000	     -3.78044315	     -5.44232880	     -3.66601296	      0.87575911	      0.92748649	      0.48545573	     15.09394369	      3.87252990	    -12.73479844	     18.71890274	     18.71890274	      8.50563466	      0.05760032	     -4.86472536	     19.58061828	    -13.46437155	     -2.98064249	     61.86760762	     61.86760762	      1.45490291	    -17.31255236	     -3.03277233	     -9.24544938	      7.60294019	      1.05517728	      6.60875722	    -15.03246461	     -0.15351630	     49.48116448	     45.11442219	      0.00000000	      0.00000000	      8.01953326	     -9.55468692	     -7.64921080	     39.45300600	     46.43062134	      0.00000000	      0.00000000
     35.76050000	     -3.71149449	     -5.45118719	     -3.35287640	      0.87495918	      0.92731896	      0.48688951	     14.76574664	      3.87161162	    -12.91970976	     19.07155300	     19.07155300	      9.06896224	     -0.00268300	     -4.72091480	     21.71388506	    -13.47676946	     -1.71697207	     64.55530859	     64.55530859	      0.84091233	    -17.26264712	     -0.73337159	     -9.33300633	      7.49625309	      0.77846921	      8.51608962	    -15.26436549	      0.19299313	     51.98778104	     45.02799070	      0.00000000	      0.00000000	      7.21811867	     -9.23402409	     -7.38569004	     37.12996706	     46.37645243	      0.00000000	      0.00000000
     35.77400000	     -3.58607316	     -5.45957100	     -3.06362864	      0.87399745	      0.92739468	      0.48807503	     14.35480492	      3.85051618	    -13.16771742	     19.38455268	     19.38455268	      9.77675504	      0.10679188	     -4.06549588	     23.78525675	    -13.40014727	     -0.55520277	     66.86695665	     66.86695665	      1.55464463	    -16.80168659	      3.82833893	     -9.56721638	      7.39960564	      1.37297568	      9.53592259	    -16.36147634	      1.32406130	     55.65354089	     44.88321319	      0.00000000	      0.00000000	      7.38852901	     -8.56158794	     -7.07350369	     33.67438770	     46.32578722	      0.00000000	      0.00000000
